<svg width="50" height="50" viewBox="0 0 50 50" fill="none" xmlns="http://www.w3.org/2000/svg">
<path fill-rule="evenodd" clip-rule="evenodd" d="M50 25C50 38.807 38.807 50 25 50C11.1929 50 0 38.807 0 25C0 11.1929 11.1929 0 25 0C38.807 0 50 11.1929 50 25ZM12.5125 17.5C12.5125 16.125 13.625 15 15 15H35C36.375 15 37.5 16.125 37.5 17.5V32.5C37.5 33.875 36.375 35 35 35H15C13.625 35 12.5 33.875 12.5 32.5L12.5125 17.5ZM25 26.25L15 19.9999V32.5H35V19.9999L25 26.25ZM25 23.75L15 17.5H35L25 23.75Z" fill="#EAE7DC"/>
</svg>
