<svg width="150" height="150" viewBox="0 0 150 150" fill="none" xmlns="http://www.w3.org/2000/svg">
<path fill-rule="evenodd" clip-rule="evenodd" d="M89.7969 13.4795C92.3631 12.6242 95.1369 12.6242 97.7031 13.4795L128.953 23.8961C134.057 25.5976 137.5 30.3743 137.5 35.7546V122.579C137.5 131.111 129.141 137.135 121.047 134.437L93.75 125.338L60.2029 136.521C57.637 137.376 54.863 137.376 52.2971 136.521L21.0471 126.104C15.9429 124.403 12.5 119.626 12.5 114.245V27.4213C12.5 18.8894 20.8587 12.8648 28.9529 15.5628L56.25 24.6618L89.7969 13.4795ZM93.75 25.338L60.2029 36.5204C57.637 37.3756 54.863 37.3756 52.2971 36.5204L25 27.4213V114.245L56.25 124.662L89.7969 113.479C92.3631 112.624 95.1369 112.624 97.7031 113.479L125 122.579V35.7546L93.75 25.338ZM83.0806 51.8305C85.5212 49.3897 89.4787 49.3897 91.9194 51.8305L96.875 56.7861L101.831 51.8305C104.271 49.3897 108.229 49.3897 110.669 51.8305C113.11 54.2713 113.11 58.2286 110.669 60.6693L105.714 65.625L110.669 70.5806C113.11 73.0213 113.11 76.9788 110.669 79.4194C108.229 81.86 104.271 81.86 101.831 79.4194L96.875 74.4638L91.9194 79.4194C89.4787 81.86 85.5212 81.86 83.0806 79.4194C80.64 76.9788 80.64 73.0213 83.0806 70.5806L88.0362 65.625L83.0806 60.6693C80.64 58.2286 80.64 54.2713 83.0806 51.8305ZM37.5 100C40.9517 100 43.75 97.2019 43.75 93.75C43.75 90.2981 40.9517 87.5 37.5 87.5C34.0482 87.5 31.25 90.2981 31.25 93.75C31.25 97.2019 34.0482 100 37.5 100ZM56.25 75C56.25 78.4519 53.4517 81.25 50 81.25C46.5482 81.25 43.75 78.4519 43.75 75C43.75 71.5481 46.5482 68.75 50 68.75C53.4517 68.75 56.25 71.5481 56.25 75ZM68.75 75C72.2019 75 75 72.2019 75 68.75C75 65.2981 72.2019 62.4999 68.75 62.4999C65.2981 62.4999 62.5 65.2981 62.5 68.75C62.5 72.2019 65.2981 75 68.75 75Z" fill="#C9C1B2"/>
</svg>
