<svg width="227" height="227" viewBox="0 0 227 227" fill="none" xmlns="http://www.w3.org/2000/svg">
<g clip-path="url(#clip0_6_69)">
<path d="M113.91 7.68372C55.4481 7.68372 8.05225 55.0796 8.05225 113.541C8.05225 172.003 55.4481 219.399 113.91 219.399C172.371 219.399 219.767 172.003 219.767 113.541C219.767 55.0796 172.371 7.68372 113.91 7.68372ZM113.91 212.341C59.3437 212.341 15.1094 168.107 15.1094 113.541C15.1094 58.9752 59.3437 14.7409 113.91 14.7409C168.476 14.7409 212.71 58.9752 212.71 113.541C212.71 168.107 168.476 212.341 113.91 212.341Z" fill="#506C7F"/>
<path d="M113.91 205.284C164.578 205.284 205.653 164.21 205.653 113.541C205.653 62.8729 164.578 21.7981 113.91 21.7981C63.2413 21.7981 22.1665 62.8729 22.1665 113.541C22.1665 164.21 63.2413 205.284 113.91 205.284Z" fill="#C9C1B2"/>
<path d="M128.85 128.481L78.0557 149.395L98.9696 98.6012L149.764 77.6873L128.85 128.481Z" fill="#E85A4F"/>
<path d="M113.91 0.630127C51.5491 0.630127 0.995117 51.1841 0.995117 113.545C0.995117 175.905 51.5491 226.459 113.91 226.459C176.27 226.459 226.824 175.905 226.824 113.545C226.824 51.1841 176.27 0.630127 113.91 0.630127ZM113.91 219.399C55.4482 219.399 8.05228 172.003 8.05228 113.541C8.05228 55.0797 55.4482 7.68376 113.91 7.68376C172.371 7.68376 219.767 55.0797 219.767 113.541C219.767 172.003 172.371 219.399 113.91 219.399Z" fill="#394240"/>
<path d="M113.91 14.741C59.3437 14.741 15.1094 58.9753 15.1094 113.541C15.1094 168.107 59.3437 212.342 113.91 212.342C168.476 212.342 212.71 168.107 212.71 113.541C212.71 58.9753 168.476 14.741 113.91 14.741ZM181.217 175.86L176.288 170.93C174.908 169.55 172.678 169.55 171.299 170.93C169.919 172.31 169.915 174.54 171.299 175.92L176.228 180.849C160.67 195.26 140.109 204.335 117.438 205.196V187.641C117.438 185.69 115.861 184.113 113.91 184.113C111.958 184.113 110.381 185.69 110.381 187.641V205.196C87.7099 204.339 67.1489 195.263 51.5914 180.852L56.5208 175.923C57.9005 174.543 57.9005 172.313 56.5208 170.934C55.1411 169.554 52.9111 169.55 51.5314 170.934L46.602 175.863C32.1912 160.306 23.1157 139.744 22.2583 117.073H39.8094C41.7608 117.073 43.338 115.496 43.338 113.545C43.338 111.593 41.7608 110.016 39.8094 110.016H22.2548C23.1122 87.3451 32.1877 66.784 46.5984 51.2265L51.5279 56.1559C52.9075 57.5356 55.1376 57.5356 56.5173 56.1559C57.897 54.7763 57.9005 52.5462 56.5173 51.1665L51.5879 46.2371C67.1489 31.8228 87.7099 22.7473 110.381 21.8863V39.441C110.381 41.3923 111.958 42.9696 113.91 42.9696C115.861 42.9696 117.438 41.3923 117.438 39.441V21.8863C140.109 22.7438 160.67 31.8193 176.228 46.23L171.299 51.1595C169.919 52.5391 169.919 54.7692 171.299 56.1489C172.678 57.5285 174.908 57.5321 176.288 56.1489L181.217 51.2194C195.628 66.777 204.704 87.338 205.561 110.009H188.01C186.059 110.009 184.481 111.586 184.481 113.538C184.481 115.489 186.059 117.066 188.01 117.066H205.565C204.704 139.741 195.628 160.302 181.217 175.86Z" fill="#394240"/>
<path d="M154.908 67.9343L94.9222 92.6344C94.0542 92.9943 93.3626 93.6859 93.0027 94.554L68.3026 154.54C67.7627 155.856 68.0662 157.373 69.0718 158.379C69.7458 159.053 70.6491 159.413 71.5665 159.413C72.0182 159.413 72.4769 159.328 72.9109 159.148L132.897 134.448C133.765 134.088 134.456 133.397 134.816 132.529L159.516 72.5427C160.056 71.2265 159.753 69.7092 158.747 68.7036C157.742 67.6979 156.224 67.398 154.908 67.9343ZM128.85 128.481L78.0556 149.395L98.9695 98.5977L149.767 77.6838L128.85 128.481Z" fill="#394240"/>
<path d="M113.91 124.127C119.753 124.127 124.496 119.385 124.496 113.541C124.496 107.698 119.753 102.955 113.91 102.955C108.067 102.955 103.324 107.698 103.324 113.541C103.324 119.385 108.067 124.127 113.91 124.127ZM113.91 110.013C115.861 110.013 117.439 111.59 117.439 113.541C117.439 115.492 115.861 117.07 113.91 117.07C111.959 117.07 110.381 115.492 110.381 113.541C110.381 111.59 111.959 110.013 113.91 110.013Z" fill="#394240"/>
<path d="M113.91 117.07C115.859 117.07 117.439 115.49 117.439 113.541C117.439 111.592 115.859 110.013 113.91 110.013C111.961 110.013 110.381 111.592 110.381 113.541C110.381 115.49 111.961 117.07 113.91 117.07Z" fill="#F76D57"/>
</g>
<defs>
<clipPath id="clip0_6_69">
<rect width="225.829" height="225.829" fill="white" transform="translate(0.995117 0.630127)"/>
</clipPath>
</defs>
</svg>
